<svg width="278" height="123" viewBox="0 0 278 123" fill="none" xmlns="http://www.w3.org/2000/svg">
<path fill-rule="evenodd" clip-rule="evenodd" d="M265.608 90.4717C261.433 90.4717 257.895 89.7211 254.995 88.2199C252.094 86.7186 249.875 84.4889 248.337 81.5306C246.843 78.5281 246.096 74.8633 246.096 70.5363V29.8707H236.999V19.4725H246.096V0.530518H257.5V19.4725H275.297V29.8707H257.5V70.5363C257.5 73.5387 258.445 75.7906 260.334 77.2918C262.224 78.793 264.619 79.5436 267.519 79.5436C268.266 79.5436 269.035 79.4995 269.826 79.4112C270.661 79.2787 271.474 79.1021 272.265 78.8813C273.1 78.6606 273.913 78.3956 274.704 78.0866L278 88.4848C273.605 89.8094 269.475 90.4717 265.608 90.4717ZM187.509 17.0219C179.686 17.0219 173.6 19.7595 169.249 25.2345L168.788 18.5452H158.044V89.1471H169.447V47.2893C169.447 44.0661 169.931 41.2623 170.897 38.878C172.128 35.6548 174.061 33.0939 176.698 31.1953C179.335 29.2967 182.587 28.3474 186.454 28.3474C191.771 28.3474 195.902 30.0694 198.846 33.5134C201.791 36.9574 203.263 41.5493 203.263 47.2893V89.1471H214.732V46.627C214.732 41.2844 213.941 36.7366 212.359 32.9835C210.294 28.0383 207.174 24.1528 202.999 21.3269C198.824 18.4569 193.661 17.0219 187.509 17.0219ZM15.161 21.3269C13.7108 22.4749 12.3925 23.8216 11.206 25.367L10.7445 18.7439H0V88.8159H11.4037V47.2893C11.4037 41.8143 12.5463 37.3327 14.8314 33.8445C17.1605 30.3122 20.6541 28.5461 25.3123 28.5461C30.0583 28.5461 33.5739 30.2901 35.8591 33.7783C38.1442 37.2223 39.2868 41.726 39.2868 47.2893V88.8159H50.6905V46.8257C50.6905 41.439 51.855 37.0457 54.1841 33.6458C56.5132 30.246 59.9848 28.5461 64.599 28.5461C69.3451 28.5461 72.8607 30.2901 75.1458 33.7783C77.431 37.2223 78.5735 41.726 78.5735 47.2893V88.8159H89.9772V46.8257C89.9772 41.9247 89.2961 37.6197 87.9338 33.9107C87.0549 31.5706 85.9782 29.4291 84.7038 27.4864C83.4294 25.5436 81.8914 23.7995 80.0896 22.2542C78.2879 20.6646 76.1785 19.4283 73.7616 18.5452C71.3446 17.6622 68.7079 17.2206 65.8515 17.2206C61.457 17.2206 57.5898 18.2582 54.25 20.3335C50.9541 22.3645 48.2735 25.1021 46.2081 28.5461C44.1866 25.1462 41.528 22.4087 38.2321 20.3335C34.9802 18.2582 31.1789 17.2206 26.8284 17.2206C24.5872 17.2206 22.4339 17.618 20.3685 18.4128C18.347 19.2076 16.6112 20.1789 15.161 21.3269ZM127.656 43.6648V89.1471H115.843V43.6648H127.656ZM117.853 3.90554C117.776 3.98351 117.696 4.06302 117.616 4.14406L104.917 16.9029C102.366 19.4662 101.1 20.2931 101.104 21.1138C101.108 21.9354 102.384 22.7507 104.917 25.2953C107.97 28.3632 108.553 29.5652 109.04 29.5276C109.361 29.5028 109.641 28.9414 110.556 28.0217L115.886 22.6668V30.2967H127.698V22.6668L132.846 27.8385C133.721 28.7182 134.157 29.1805 134.593 29.1814C135.307 29.183 136.023 27.9518 138.667 25.2953C140.809 23.1436 142.055 22.2981 142.133 21.3548C142.211 20.4209 141.143 19.391 138.667 16.9029L125.968 4.14406C121.79 -0.0537918 121.749 -0.0124888 117.853 3.90554Z" fill="white"/>
<path d="M11.2015 25.0241C12.3875 23.4798 13.7053 22.1341 15.1549 20.9869C16.6045 19.8397 18.3397 18.869 20.3603 18.0748C22.4249 17.2806 24.5773 16.8835 26.8176 16.8835C31.1664 16.8835 34.9661 17.9204 38.2168 19.9942C41.5113 22.0679 44.1689 24.8035 46.1896 28.2009C48.2542 24.7594 50.9337 22.0238 54.2283 19.9942C57.5667 17.9204 61.4324 16.8835 65.8251 16.8835C68.6804 16.8835 71.316 17.3248 73.732 18.2072C76.148 19.0897 78.2565 20.3251 80.0575 21.9135C81.8586 23.4578 83.396 25.2006 84.6699 27.142C85.9438 29.0833 87.02 31.2233 87.8986 33.5617C89.2603 37.268 89.9412 41.5699 89.9412 46.4675V88.4277H78.542V46.9307C78.542 41.3714 77.3999 36.8709 75.1157 33.4294C72.8315 29.9437 69.3173 28.2009 64.5732 28.2009C59.9608 28.2009 56.4905 29.8996 54.1624 33.297C51.8342 36.6944 50.6702 41.0846 50.6702 46.4675V88.4277H39.271V46.9307C39.271 41.3714 38.1289 36.8709 35.8447 33.4294C33.5605 29.9437 30.0463 28.2009 25.3021 28.2009C20.6458 28.2009 17.1536 29.9658 14.8255 33.4955C12.5412 36.9812 11.3991 41.4596 11.3991 46.9307V88.4277H0V18.4058H10.7402L11.2015 25.0241Z" fill="white"/>
<path fill-rule="evenodd" clip-rule="evenodd" d="M127.757 43.457L127.757 88.4276L115.493 88.4276L115.493 43.457L127.757 43.457Z" fill="white"/>
<path fill-rule="evenodd" clip-rule="evenodd" d="M117.635 3.72863C121.753 -0.470483 121.711 -0.600064 125.957 3.72863L138.609 16.6285C143.568 21.685 142.855 20.7844 138.609 25.1135C134.363 29.4426 135.107 30.028 132.809 27.6849L127.68 22.456V30.1702H115.911V22.456L110.601 27.8701C108.303 30.2132 110.026 30.2562 104.982 25.1135C99.9385 19.9708 99.8962 21.8143 104.982 16.6285L117.635 3.72863Z" fill="#6D04AD"/>
<path d="M270.756 122.654H265.508V107.848H270.8C272.289 107.848 273.571 108.145 274.646 108.737C275.721 109.325 276.547 110.171 277.126 111.275C277.709 112.379 278 113.699 278 115.237C278 116.779 277.709 118.104 277.126 119.213C276.547 120.321 275.716 121.172 274.631 121.765C273.552 122.358 272.26 122.654 270.756 122.654ZM268.638 119.972H270.626C271.552 119.972 272.33 119.808 272.961 119.48C273.598 119.148 274.075 118.635 274.393 117.941C274.716 117.242 274.877 116.34 274.877 115.237C274.877 114.143 274.716 113.249 274.393 112.555C274.075 111.861 273.6 111.35 272.969 111.022C272.337 110.694 271.559 110.53 270.634 110.53H268.638V119.972Z" fill="white"/>
<path d="M253.042 122.654V107.848H263.019V110.429H256.172V113.957H262.505V116.538H256.172V120.073H263.048V122.654H253.042Z" fill="white"/>
<path d="M238.879 110.429V107.848H251.039V110.429H246.507V122.654H243.412V110.429H238.879Z" fill="white"/>
<path d="M236.868 107.848V122.654H233.738V107.848H236.868Z" fill="white"/>
<path d="M215.109 107.848H218.969L223.047 117.796H223.22L227.298 107.848H231.158V122.654H228.122V113.017H227.999L224.167 122.582H222.1L218.268 112.981H218.145V122.654H215.109V107.848Z" fill="white"/>
<path d="M212.533 107.848V122.654H209.403V107.848H212.533Z" fill="white"/>
<path d="M197.852 122.654V107.848H200.982V120.073H207.33V122.654H197.852Z" fill="white"/>
<path d="M187.832 112.106C187.774 111.523 187.526 111.07 187.087 110.747C186.649 110.424 186.053 110.263 185.302 110.263C184.791 110.263 184.359 110.335 184.007 110.48C183.656 110.619 183.386 110.815 183.198 111.065C183.015 111.316 182.923 111.6 182.923 111.918C182.913 112.183 182.969 112.415 183.089 112.612C183.215 112.81 183.386 112.981 183.603 113.126C183.82 113.265 184.07 113.388 184.354 113.494C184.639 113.596 184.942 113.682 185.265 113.755L186.596 114.073C187.241 114.217 187.834 114.41 188.374 114.651C188.914 114.892 189.381 115.189 189.777 115.54C190.172 115.892 190.478 116.307 190.695 116.784C190.916 117.261 191.03 117.808 191.035 118.425C191.03 119.331 190.798 120.117 190.341 120.782C189.887 121.442 189.232 121.955 188.374 122.322C187.521 122.683 186.492 122.864 185.287 122.864C184.092 122.864 183.051 122.681 182.164 122.314C181.282 121.948 180.593 121.406 180.096 120.688C179.605 119.965 179.347 119.071 179.323 118.006H182.352C182.386 118.502 182.528 118.917 182.778 119.249C183.034 119.577 183.374 119.825 183.798 119.994C184.227 120.158 184.711 120.24 185.251 120.24C185.781 120.24 186.241 120.162 186.632 120.008C187.027 119.854 187.333 119.64 187.55 119.365C187.767 119.09 187.875 118.774 187.875 118.418C187.875 118.085 187.776 117.806 187.579 117.579C187.386 117.353 187.102 117.16 186.726 117.001C186.355 116.842 185.899 116.697 185.359 116.567L183.747 116.162C182.499 115.858 181.513 115.384 180.79 114.738C180.067 114.092 179.708 113.222 179.713 112.128C179.708 111.232 179.947 110.448 180.429 109.778C180.916 109.109 181.583 108.586 182.431 108.21C183.28 107.834 184.244 107.646 185.323 107.646C186.422 107.646 187.381 107.834 188.201 108.21C189.025 108.586 189.666 109.109 190.124 109.778C190.582 110.448 190.818 111.224 190.832 112.106H187.832Z" fill="white"/>
<path d="M168.249 122.654V107.848H171.379V120.073H177.727V122.654H168.249Z" fill="white"/>
<path d="M155.572 122.654H152.218L157.329 107.848H161.363L166.467 122.654H163.113L159.404 111.232H159.288L155.572 122.654ZM155.363 116.834H163.286V119.278H155.363V116.834Z" fill="white"/>
<path d="M140.667 110.429V107.848H152.827V110.429H148.294V122.654H145.199V110.429H140.667Z" fill="white"/>
<path d="M128.765 122.654V107.848H138.742V110.429H131.896V113.957H138.229V116.538H131.896V120.073H138.771V122.654H128.765Z" fill="white"/>
<path d="M110.136 107.848H113.997L118.074 117.796H118.248L122.325 107.848H126.186V122.654H123.149V113.017H123.026L119.195 122.582H117.127L113.296 112.981H113.173V122.654H110.136V107.848Z" fill="white"/>
<path d="M100.117 112.106C100.059 111.523 99.8105 111.07 99.3719 110.747C98.9333 110.424 98.3381 110.263 97.5862 110.263C97.0753 110.263 96.644 110.335 96.2921 110.48C95.9403 110.619 95.6704 110.815 95.4824 111.065C95.2993 111.316 95.2077 111.6 95.2077 111.918C95.1981 112.183 95.2535 112.415 95.374 112.612C95.4993 112.81 95.6704 112.981 95.8873 113.126C96.1042 113.265 96.3548 113.388 96.6392 113.494C96.9235 113.596 97.2272 113.682 97.5501 113.755L98.8803 114.073C99.5261 114.217 100.119 114.41 100.659 114.651C101.199 114.892 101.666 115.189 102.061 115.54C102.457 115.892 102.763 116.307 102.979 116.784C103.201 117.261 103.314 117.808 103.319 118.425C103.314 119.331 103.083 120.117 102.625 120.782C102.172 121.442 101.517 121.955 100.659 122.322C99.8057 122.683 98.7767 122.864 97.5718 122.864C96.3765 122.864 95.3354 122.681 94.4486 122.314C93.5666 121.948 92.8774 121.406 92.381 120.688C91.8894 119.965 91.6315 119.071 91.6074 118.006H94.6366C94.6703 118.502 94.8125 118.917 95.0631 119.249C95.3186 119.577 95.6584 119.825 96.0825 119.994C96.5114 120.158 96.9958 120.24 97.5356 120.24C98.0658 120.24 98.5261 120.162 98.9165 120.008C99.3117 119.854 99.6177 119.64 99.8346 119.365C100.051 119.09 100.16 118.774 100.16 118.418C100.16 118.085 100.061 117.806 99.8635 117.579C99.6707 117.353 99.3864 117.16 99.0104 117.001C98.6393 116.842 98.1839 116.697 97.6441 116.567L96.0319 116.162C94.7836 115.858 93.798 115.384 93.075 114.738C92.3521 114.092 91.993 113.222 91.9978 112.128C91.993 111.232 92.2316 110.448 92.7135 109.778C93.2003 109.109 93.8678 108.586 94.7161 108.21C95.5644 107.834 96.5283 107.646 97.6079 107.646C98.7068 107.646 99.6659 107.834 100.485 108.21C101.309 108.586 101.95 109.109 102.408 109.778C102.866 110.448 103.102 111.224 103.117 112.106H100.117Z" fill="white"/>
<path d="M86.3782 107.848H89.5086V117.463C89.5086 118.543 89.2508 119.488 88.7351 120.297C88.2242 121.107 87.5085 121.738 86.5879 122.191C85.6673 122.64 84.595 122.864 83.3708 122.864C82.1417 122.864 81.067 122.64 80.1464 122.191C79.2258 121.738 78.5101 121.107 77.9992 120.297C77.4883 119.488 77.2329 118.543 77.2329 117.463V107.848H80.3633V117.196C80.3633 117.76 80.4862 118.261 80.732 118.7C80.9826 119.138 81.3344 119.483 81.7875 119.733C82.2405 119.984 82.7683 120.109 83.3708 120.109C83.978 120.109 84.5058 119.984 84.954 119.733C85.4071 119.483 85.7565 119.138 86.0023 118.7C86.2529 118.261 86.3782 117.76 86.3782 117.196V107.848Z" fill="white"/>
<path d="M74.9141 115.251C74.9141 116.866 74.608 118.239 73.9959 119.372C73.3886 120.505 72.5596 121.37 71.509 121.967C70.4631 122.56 69.2871 122.857 67.981 122.857C66.6652 122.857 65.4844 122.558 64.4385 121.96C63.3926 121.363 62.5661 120.497 61.9588 119.365C61.3515 118.232 61.0479 116.861 61.0479 115.251C61.0479 113.637 61.3515 112.263 61.9588 111.13C62.5661 109.998 63.3926 109.135 64.4385 108.542C65.4844 107.945 66.6652 107.646 67.981 107.646C69.2871 107.646 70.4631 107.945 71.509 108.542C72.5596 109.135 73.3886 109.998 73.9959 111.13C74.608 112.263 74.9141 113.637 74.9141 115.251ZM71.7403 115.251C71.7403 114.205 71.5837 113.323 71.2704 112.605C70.9619 111.887 70.5257 111.342 69.9618 110.971C69.3979 110.6 68.7376 110.415 67.981 110.415C67.2243 110.415 66.564 110.6 66.0001 110.971C65.4362 111.342 64.9976 111.887 64.6843 112.605C64.3758 113.323 64.2216 114.205 64.2216 115.251C64.2216 116.297 64.3758 117.179 64.6843 117.897C64.9976 118.615 65.4362 119.16 66.0001 119.531C66.564 119.902 67.2243 120.088 67.981 120.088C68.7376 120.088 69.3979 119.902 69.9618 119.531C70.5257 119.16 70.9619 118.615 71.2704 117.897C71.5837 117.179 71.7403 116.297 71.7403 115.251Z" fill="white"/>
<path d="M58.7329 107.848V122.654H55.6025V107.848H58.7329Z" fill="white"/>
<path d="M53.3577 113.032H50.1912C50.1333 112.622 50.0152 112.258 49.8369 111.94C49.6586 111.617 49.4296 111.342 49.1501 111.116C48.8706 110.889 48.5476 110.716 48.1814 110.595C47.8199 110.475 47.4271 110.415 47.0029 110.415C46.2366 110.415 45.5691 110.605 45.0004 110.986C44.4316 111.362 43.9906 111.911 43.6774 112.634C43.3641 113.352 43.2074 114.225 43.2074 115.251C43.2074 116.307 43.3641 117.194 43.6774 117.912C43.9955 118.63 44.4389 119.172 45.0076 119.538C45.5763 119.905 46.2342 120.088 46.9813 120.088C47.4006 120.088 47.7886 120.032 48.1452 119.921C48.5067 119.811 48.8272 119.649 49.1067 119.437C49.3863 119.22 49.6176 118.958 49.8008 118.649C49.9887 118.341 50.1189 117.989 50.1912 117.594L53.3577 117.608C53.2757 118.288 53.0709 118.943 52.7432 119.574C52.4203 120.201 51.9841 120.762 51.4346 121.259C50.89 121.751 50.2393 122.141 49.4827 122.43C48.7308 122.714 47.8801 122.857 46.9306 122.857C45.6101 122.857 44.4292 122.558 43.3882 121.96C42.352 121.363 41.5326 120.497 40.9302 119.365C40.3325 118.232 40.0337 116.861 40.0337 115.251C40.0337 113.637 40.3373 112.263 40.9446 111.13C41.5519 109.998 42.3761 109.135 43.4171 108.542C44.4582 107.945 45.6293 107.646 46.9306 107.646C47.7885 107.646 48.5838 107.766 49.3164 108.007C50.0538 108.248 50.7069 108.6 51.2756 109.063C51.8443 109.521 52.307 110.082 52.6636 110.747C53.0251 111.412 53.2565 112.174 53.3577 113.032Z" fill="white"/>
<path d="M27.8286 122.654V107.848H37.8053V110.429H30.959V113.957H37.292V116.538H30.959V120.073H37.8343V122.654H27.8286Z" fill="white"/>
<path d="M14.4683 122.654V107.848H20.3097C21.4279 107.848 22.3822 108.048 23.1726 108.448C23.9678 108.843 24.5727 109.405 24.9872 110.133C25.4065 110.856 25.6162 111.706 25.6162 112.685C25.6162 113.668 25.4041 114.514 24.98 115.222C24.5558 115.926 23.9413 116.466 23.1364 116.842C22.3364 117.218 21.3676 117.406 20.2302 117.406H16.319V114.89H19.7241C20.3218 114.89 20.8182 114.808 21.2134 114.644C21.6086 114.48 21.9026 114.234 22.0954 113.906C22.293 113.579 22.3918 113.171 22.3918 112.685C22.3918 112.193 22.293 111.779 22.0954 111.441C21.9026 111.104 21.6062 110.848 21.2062 110.675C20.811 110.497 20.3121 110.407 19.7097 110.407H17.5986V122.654H14.4683ZM22.4641 115.916L26.1439 122.654H22.6882L19.0879 115.916H22.4641Z" fill="white"/>
<path d="M1.28711 122.654V107.848H7.12855C8.25154 107.848 9.20824 108.063 9.99867 108.492C10.7891 108.916 11.3916 109.506 11.806 110.263C12.2254 111.015 12.435 111.882 12.435 112.865C12.435 113.849 12.223 114.716 11.7988 115.468C11.3747 116.22 10.7602 116.806 9.95529 117.225C9.15523 117.644 8.18647 117.854 7.04903 117.854H3.32583V115.345H6.54296C7.14542 115.345 7.64185 115.242 8.03224 115.034C8.42746 114.822 8.72146 114.531 8.91424 114.16C9.11185 113.784 9.21065 113.352 9.21065 112.865C9.21065 112.374 9.11185 111.945 8.91424 111.579C8.72146 111.207 8.42746 110.921 8.03224 110.718C7.63703 110.511 7.13578 110.407 6.5285 110.407H4.41749V122.654H1.28711Z" fill="white"/>
</svg>
